<?xml version="1.0" standalone="no"?>
<!DOCTYPE svg PUBLIC "-//W3C//DTD SVG 20010904//EN" "http://www.w3.org/TR/2001/REC-SVG-20010904/DTD/svg10.dtd">
<!-- Created using Krita: https://krita.org -->
<svg xmlns="http://www.w3.org/2000/svg" 
    xmlns:xlink="http://www.w3.org/1999/xlink"
    xmlns:krita="http://krita.org/namespaces/svg/krita"
    xmlns:sodipodi="http://sodipodi.sourceforge.net/DTD/sodipodi-0.dtd"
    width="242.4pt"
    height="201.6pt"
    viewBox="0 0 242.4 201.6">
<defs>
  <linearGradient id="gradient0" gradientUnits="objectBoundingBox" x1="-0.000280647139570878" y1="0.49994692298783" x2="1.00009953499669" y2="0.49994692298783" spreadMethod="pad">
   <stop stop-color="#808080" offset="0" stop-opacity="0.250003814755474"/>
   <stop stop-color="#808080" offset="0.540000021457672" stop-opacity="0.119996948195621"/>
   <stop stop-color="#808080" offset="1" stop-opacity="0.100007629510948"/>
  </linearGradient>
 </defs>
<path id="shape0" transform="matrix(0.239999995812938 0 0 0.239999995812938 0.054753284703807 -1.08047187512867)" opacity="0.1" fill="#0050cc" stroke="#000000" stroke-opacity="0" stroke-width="0" stroke-linecap="square" stroke-linejoin="bevel" d="M586.554 111.402C521.834 109.152 460.194 88.262 401.334 65.402C342.474 42.542 284.174 17.212 221.004 5.10197C180.374 -2.68803 133.904 -3.78803 101.174 17.992C69.6641 38.992 59.4841 75.142 54.0141 108.722C49.8941 133.982 47.4741 160.572 58.7541 184.212C66.5941 200.632 80.4941 214.432 90.1141 230.162C123.584 284.882 99.9241 352.362 63.6641 405.792C46.6641 430.862 26.9141 454.792 13.7841 481.452C0.65411 508.112 -5.41589 538.702 6.07411 565.922C17.4541 592.922 44.5841 613.162 73.9741 627.412C133.664 656.362 203.974 664.642 272.584 669.332C424.414 679.722 577.044 675.222 729.274 670.722C785.614 669.052 842.194 667.362 897.614 658.652C928.394 653.812 960.164 646.142 982.514 627.602C1010.87 604.072 1017.9 564.232 998.894 534.722C967.014 485.232 878.894 472.942 856.584 419.832C844.324 390.592 856.914 358.032 874.744 330.912C912.984 272.752 977.074 221.722 980.444 155.242C982.764 109.582 951.954 63.852 904.314 42.242C854.384 19.602 785.134 22.442 748.314 59.932C710.364 98.532 643.704 113.382 586.554 111.402Z"/><ellipse id="shape1" transform="matrix(0.239999995812938 0 0 0.239999995812938 43.0848039985607 177.928796897119)" rx="303.97" ry="41.12" cx="303.97" cy="41.12" opacity="0.1" fill="#38d39f" stroke="#000000" stroke-opacity="0" stroke-width="0" stroke-linecap="square" stroke-linejoin="bevel"/><path id="shape2" transform="matrix(0.239999995812938 0 0 0.239999995812938 79.9224033558885 157.978455803515)" fill="#3f3cd2" stroke="#000000" stroke-opacity="0" stroke-width="0" stroke-linecap="square" stroke-linejoin="bevel" d="M0 0.326423C0 0.326423 21 -3.03358 33.6 11.8064C33.6 11.8064 24.36 19.0864 4.48 9.00642Z"/><path id="shape3" transform="matrix(0.239999995812938 0 0 0.239999995812938 77.31049553268 157.977597243908)" fill="#3c48d2" stroke="#000000" stroke-opacity="0" stroke-width="0" stroke-linecap="square" stroke-linejoin="bevel" d="M8.64295 0C8.64295 0 -4.75705 16.58 1.81295 34.85C1.81295 34.85 12.7329 30.48 13.9229 8.22Z"/><path id="shape4" transform="matrix(0.239999995812938 0 0 0.239999995812938 76.5048034155122 150.192304646167)" fill="#3c77d2" stroke="#000000" stroke-opacity="0" stroke-width="0" stroke-linecap="square" stroke-linejoin="bevel" d="M0 5.32872C0 5.32872 8.4 -10.0713 42 11.4887C42 11.4887 37.52 21.8487 22.68 21.0087C7.84 20.1687 3.87 13.4487 0 5.32872Z"/><path id="shape5" transform="matrix(0.239999995812938 0 0 0.239999995812938 71.3856035048223 151.200812326775)" fill="#004dcc" stroke="#000000" stroke-opacity="0" stroke-width="0" stroke-linecap="square" stroke-linejoin="bevel" d="M19.12 0.0166043C19.12 0.0166043 1.69 -1.9834 0 37.9166C0 37.9166 11.05 40.2166 18.9 27.5866C26.75 14.9566 23.5 7.8966 19.12 0.0166043Z"/><path id="shape6" transform="matrix(0.239999995812938 0 0 0.239999995812938 73.5360034673062 140.019236822384)" fill="#0050cc" stroke="#000000" stroke-opacity="0" stroke-width="0" stroke-linecap="square" stroke-linejoin="bevel" d="M0 14.7865C0 14.7865 9.8 -12.3835 45.37 6.9365C45.37 6.9365 37.25 31.8665 3.64 24.0265Z"/><path id="shape7" transform="matrix(0.239999995812938 0 0 0.239999995812938 70.915203513029 130.747085987414)" fill="#0050cc" stroke="#000000" stroke-opacity="0" stroke-width="0" stroke-linecap="square" stroke-linejoin="bevel" d="M0 12.8105C0 12.8105 18.48 -14.6295 51.25 10.8105C51.25 10.8105 39.77 36.5705 2.8 22.5705Z"/><path id="shape8" transform="matrix(0.239999995812938 0 0 0.239999995812938 69.9744035294422 121.859997874019)" fill="#0050cc" stroke="#000000" stroke-opacity="0" stroke-width="0" stroke-linecap="square" stroke-linejoin="bevel" d="M0 11.2C0 11.2 21.56 -14 54 11.2C54 11.2 33.55 33.32 0 17.64Z"/><path id="shape9" transform="matrix(0.239999995812938 0 0 0.239999995812938 69.1680035435108 112.632398434652)" fill="#0050cc" stroke="#000000" stroke-opacity="0" stroke-width="0" stroke-linecap="square" stroke-linejoin="bevel" d="M0 12.1283C0 12.1283 21.84 -14.2017 52.93 10.7283C52.93 10.7283 28.28 33.9683 0 18.2883Z"/><path id="shape10" transform="matrix(0.239999995812938 0 0 0.239999995812938 69.6384035353041 103.007765189657)" fill="#0050cc" stroke="#000000" stroke-opacity="0" stroke-width="0" stroke-linecap="square" stroke-linejoin="bevel" d="M0 18.901C0 18.901 23 -14.979 52.09 7.98097C52.09 7.98097 27.44 37.111 0 25.341Z"/><path id="shape11" transform="matrix(0.239999995812938 0 0 0.239999995812938 70.915203513029 93.9891760057779)" fill="#0050cc" stroke="#000000" stroke-opacity="0" stroke-width="0" stroke-linecap="square" stroke-linejoin="bevel" d="M0 17.5584C0 17.5584 24.36 -16.0416 52.65 9.71843C52.65 9.71843 23.8 38.8384 0 23.7184Z"/><path id="shape12" transform="matrix(0.239999995812938 0 0 0.239999995812938 72.5640034842638 84.5838670429426)" fill="#0050cc" stroke="#000000" stroke-opacity="0" stroke-width="0" stroke-linecap="square" stroke-linejoin="bevel" d="M1.26 21.9572C1.26 21.9572 30.09 -9.61279 55.26 2.95721C55.26 2.95721 25.2 36.4872 0 30.3272Z"/><path id="shape13" transform="matrix(0.239999995812938 0 0 0.239999995812938 74.719203446664 75.1252744631739)" fill="#0050cc" stroke="#000000" stroke-opacity="0" stroke-width="0" stroke-linecap="square" stroke-linejoin="bevel" d="M2.35 28.398C2.35 28.398 35.68 -10.252 55 2.62802C55 2.62802 30.48 32.628 0 35.678Z"/><path id="shape14" transform="matrix(0.239999995812938 0 0 0.239999995812938 77.8368033922741 66.7606135745224)" fill="#0050cc" stroke="#000000" stroke-opacity="0" stroke-width="0" stroke-linecap="square" stroke-linejoin="bevel" d="M3.91 24.9908C3.91 24.9908 33.05 -6.58923 54.33 1.25077C54.33 1.25077 29.41 34.0208 0 34.8608Z"/><path id="shape15" transform="matrix(0.239999995812938 0 0 0.239999995812938 81.6024033265791 58.0397261834498)" fill="#0050cc" stroke="#000000" stroke-opacity="0" stroke-width="0" stroke-linecap="square" stroke-linejoin="bevel" d="M1.4 25.5478C1.4 25.5478 33.6 -4.6922 47.6 0.627803C47.6 0.627803 24.36 34.2278 0 32.2678Z"/><path id="shape16" transform="matrix(0.239999995812938 0 0 0.239999995812938 85.0296032667878 48.207655028869)" fill="#0050cc" stroke="#000000" stroke-opacity="0" stroke-width="0" stroke-linecap="square" stroke-linejoin="bevel" d="M0 33.4748C0 33.4748 27.72 -2.64523 42.84 0.154767C42.84 0.154767 26.04 32.3548 0 37.1548Z"/><path id="shape17" transform="matrix(0.239999995812938 0 0 0.239999995812938 88.1424032124816 38.9255675333044)" fill="#0050cc" stroke="#000000" stroke-opacity="0" stroke-width="0" stroke-linecap="square" stroke-linejoin="bevel" d="M1 27.6301C1 27.6301 25.51 -0.0698676 38.74 0.000132448C38.74 0.000132448 19.4 37.0001 0 36.6601Z"/><path id="shape18" transform="matrix(0.239999995812938 0 0 0.239999995812938 89.6472031862288 24.5879995710355)" fill="#0050cc" stroke="#000000" stroke-opacity="0" stroke-width="0" stroke-linecap="square" stroke-linejoin="bevel" d="M3.02 57.68L26.68 0C26.68 0 27.87 52.14 0 68.38Z"/><path id="shape19" transform="matrix(0.239999995812938 0 0 0.239999995812938 92.6376031340579 10.665599813927)" fill="#0050cc" stroke="#000000" stroke-opacity="0" stroke-width="0" stroke-linecap="square" stroke-linejoin="bevel" d="M0.16 52.08C0.16 52.08 4.08 3.92 1.56 0C1.56 0 18.49 40 0 73.36Z"/><path id="shape20" transform="matrix(0.239999995812938 0 0 0.239999995812938 63.6144036403994 142.673447174411)" fill="#0a26dd" stroke="#000000" stroke-opacity="0" stroke-width="0" stroke-linecap="square" stroke-linejoin="bevel" d="M40.43 3.07729C40.43 3.07729 15.88 -12.1327 0 25.0773C0 25.0773 21.84 39.5773 43.31 12.5673Z"/><path id="shape21" transform="matrix(0.239999995812938 0 0 0.239999995812938 59.9976037034984 132.884498356185)" fill="#0050cc" stroke="#000000" stroke-opacity="0" stroke-width="0" stroke-linecap="square" stroke-linejoin="bevel" d="M44.71 2.35458C44.71 2.35458 14.61 -11.3754 0 27.4746C0 27.4746 23.26 43.4746 47.45 12.1746Z"/><path id="shape22" transform="matrix(0.239999995812938 0 0 0.239999995812938 56.6784037614055 122.414397864347)" fill="#0050cc" stroke="#000000" stroke-opacity="0" stroke-width="0" stroke-linecap="square" stroke-linejoin="bevel" d="M54 11.2C54 11.2 32.44 -14 0 11.2C0 11.2 20.44 33.32 54 17.64Z"/><path id="shape23" transform="matrix(0.239999995812938 0 0 0.239999995812938 56.2896037681885 112.632398434652)" fill="#0050cc" stroke="#000000" stroke-opacity="0" stroke-width="0" stroke-linecap="square" stroke-linejoin="bevel" d="M52.93 12.1283C52.93 12.1283 31.08 -14.2017 0 10.7283C0 10.7283 24.64 33.9683 52.93 18.2883Z"/><path id="shape24" transform="matrix(0.239999995812938 0 0 0.239999995812938 57.9696037388791 101.604807744281)" fill="#0050cc" stroke="#000000" stroke-opacity="0" stroke-width="0" stroke-linecap="square" stroke-linejoin="bevel" d="M48.62 25.7066C48.62 25.7066 33.3 -12.2434 0 4.07663C0 4.07663 18 37.7366 47.27 32.0066Z"/><path id="shape25" transform="matrix(0.239999995812938 0 0 0.239999995812938 59.618403710114 92.0506119680772)" fill="#0050cc" stroke="#000000" stroke-opacity="0" stroke-width="0" stroke-linecap="square" stroke-linejoin="bevel" d="M49 25.4458C49 25.4458 33.78 -13.1642 0 4.73578C0 4.73578 20.68 40.1258 47.5 31.4158Z"/><path id="shape26" transform="matrix(0.239999995812938 0 0 0.239999995812938 65.4960036075728 78.8303986247175)" fill="#0050cc" stroke="#000000" stroke-opacity="0" stroke-width="0" stroke-linecap="square" stroke-linejoin="bevel" d="M33.95 46.13C33.95 46.13 27.95 3.79 0 0C0 0 5.93 44.64 30.22 53.75Z"/><path id="shape27" transform="matrix(0.239999995812938 0 0 0.239999995812938 69.3360035405798 69.2927987911114)" fill="#0050cc" stroke="#000000" stroke-opacity="0" stroke-width="0" stroke-linecap="square" stroke-linejoin="bevel" d="M25.5 52.77C25.5 52.77 23.15 1.77 0 0C0 0 0.78 38.7 22.89 60Z"/><path id="shape28" transform="matrix(0.239999995812938 0 0 0.239999995812938 72.3936034872366 60.9863989360256)" fill="#0050cc" stroke="#000000" stroke-opacity="0" stroke-width="0" stroke-linecap="square" stroke-linejoin="bevel" d="M29 47.59C29 47.59 22.09 5.19 0 0C0 0 2.74 41.07 26.81 58Z"/><path id="shape29" transform="matrix(0.239999995812938 0 0 0.239999995812938 78.8084962792419 52.0847990913238)" fill="#0050cc" stroke="#000000" stroke-opacity="0" stroke-width="0" stroke-linecap="square" stroke-linejoin="bevel" d="M15.6613 50.67C15.6613 50.67 15.4213 6.49 1.92128 0C1.92128 0 -6.44872 40 11.7513 56.31Z"/><path id="shape30" transform="matrix(0.239999995812938 0 0 0.239999995812938 81.3347648765525 43.6583992383315)" fill="#0050cc" stroke="#000000" stroke-opacity="0" stroke-width="0" stroke-linecap="square" stroke-linejoin="bevel" d="M16.4252 51.91C16.4252 51.91 14.5252 6.41 0.55516 0C0.55516 0 -4.23484 36 14.3252 54.88Z"/><path id="shape31" transform="matrix(0.239999995812938 0 0 0.239999995812938 85.654101618807 35.4575993814034)" fill="#0050cc" stroke="#000000" stroke-opacity="0" stroke-width="0" stroke-linecap="square" stroke-linejoin="bevel" d="M13.3279 45.68C13.3279 45.68 13.2379 8.68 3.25792 0C3.25792 0 -6.66208 40.54 8.11792 53.12Z"/><path id="shape32" transform="matrix(0.239999995812938 0 0 0.239999995812938 86.8690754816747 23.2127995950273)" fill="#0050cc" stroke="#000000" stroke-opacity="0" stroke-width="0" stroke-linecap="square" stroke-linejoin="bevel" d="M13.4155 61.59L3.71553 0C3.71553 0 -9.48447 50.47 13.8755 72.7Z"/><path id="shape33" transform="matrix(0.239999995812938 0 0 0.239999995812938 84.6844777252475 12.2639997860411)" fill="#0050cc" stroke="#000000" stroke-opacity="0" stroke-width="0" stroke-linecap="square" stroke-linejoin="bevel" d="M24.418 46C24.418 46 -0.511977 4.61 0.00802311 0C0.00802311 0 2.64802 43.4 34.008 65Z"/><path id="shape34" transform="matrix(0.239999995812938 0 0 0.239999995812938 83.047203301373 5.11439991077371)" fill="#0050cc" stroke="#000000" stroke-opacity="0" stroke-width="0" stroke-linecap="square" stroke-linejoin="bevel" d="M34.16 63.57C34.16 63.57 10.64 4.76 0 0C0 0 33.6 17.08 36.12 61.89Z"/><path id="shape35" transform="matrix(0.239999995812938 0 0 0.239999995812938 87.7248032197671 19.4687996603455)" fill="#0050cc" stroke="#000000" stroke-opacity="0" stroke-width="0" stroke-linecap="square" stroke-linejoin="bevel" d="M1.61 118.05L0 117.56C19.85 52.83 24.81 11.56 13.95 1.22L15.11 0C26.61 10.91 21.95 51.7 1.61 118.05Z"/><path id="shape36" transform="matrix(0.239999995812938 0 0 0.239999995812938 74.4240034518141 46.6583991859932)" fill="#0050cc" stroke="#000000" stroke-opacity="0" stroke-width="0" stroke-linecap="square" stroke-linejoin="bevel" d="M2.37 156.28L0 155.44C2.1 149.51 4.37 143.49 6.75 137.55C27.47 85.91 45.11 37.88 56.42 1L58.49 0C47.16 36.95 29.84 86.83 9.09 138.53C6.72 144.41 4.46 150.41 2.37 156.28Z"/><path id="shape37" transform="matrix(0.239999995812938 0 0 0.239999995812938 68.5886148713011 82.8335985548773)" fill="#0050cc" stroke="#000000" stroke-opacity="0" stroke-width="0" stroke-linecap="square" stroke-linejoin="bevel" d="M76.7741 361.88C76.4541 361.52 44.2741 325.3 21.8541 263.44C8.7074 227.236 1.38316 189.177 0.15412 150.68C-1.38588 102.55 8.71412 48.81 26.0141 0L27.8941 2.2C-10.9359 111.76 4.49412 205.65 24.9541 262.2C47.1541 323.49 78.9541 359.33 79.2741 359.68Z"/><rect id="shape38" transform="matrix(0.239999995812938 0 0 0.239999995812938 154.272002058778 69.5567987865056)" fill="#3a3768" stroke="#000000" stroke-opacity="0" stroke-width="0" stroke-linecap="square" stroke-linejoin="bevel" width="8.86" height="73.02" rx="2.29" ry="2.29"/><rect id="shape39" transform="matrix(0.239999995812938 0 0 0.239999995812938 83.6088032915752 55.8263990260475)" fill="#0050cc" stroke="#000000" stroke-opacity="0" stroke-width="0" stroke-linecap="square" stroke-linejoin="bevel" width="4.97" height="24.04" rx="2.29" ry="2.29"/><rect id="shape40" transform="matrix(0.239999995812938 0 0 0.239999995812938 83.5656032923289 66.391198841733)" fill="#0050cc" stroke="#000000" stroke-opacity="0" stroke-width="0" stroke-linecap="square" stroke-linejoin="bevel" width="5.6" height="41.84" rx="2.29" ry="2.29"/><rect id="shape41" transform="matrix(0.239999995812938 0 0 0.239999995812938 83.5872032919521 79.9463986052477)" fill="#0050cc" stroke="#000000" stroke-opacity="0" stroke-width="0" stroke-linecap="square" stroke-linejoin="bevel" width="5.33" height="42.2" rx="2.29" ry="2.29"/><rect id="shape42" transform="matrix(0.239999995812938 0 0 0.239999995812938 84.2832032798096 36.7607993586677)" fill="#0050cc" stroke="#000000" stroke-opacity="0" stroke-width="0" stroke-linecap="square" stroke-linejoin="bevel" width="296.4" height="602.39" rx="38.99" ry="38.99"/><path id="shape43" transform="matrix(0.239999995812938 0 0 0.239999995812938 88.6776032031445 40.5167992931343)" fill="#0050cc" stroke="#000000" stroke-opacity="0" stroke-width="0" stroke-linecap="square" stroke-linejoin="bevel" d="M236.28 2.45564e-11L202.28 2.45564e-11L202.28 4.09C202.28 14.7972 193.597 23.4755 182.89 23.47L74.76 23.47C64.0528 23.4755 55.37 14.7972 55.37 4.09L55.37 2.45564e-11L23.54 2.45564e-11C10.5392 2.45564e-11 0 10.5392 0 23.54L5.68434e-14 547.51C0 560.511 10.5392 571.05 23.54 571.05L236.28 571.05C249.281 571.05 259.82 560.511 259.82 547.51L259.82 23.58C259.831 17.3299 257.355 11.3321 252.939 6.90884C248.524 2.48558 242.53 -9.0233e-06 236.28 2.45564e-11Z"/><rect id="shape44" transform="matrix(0.239999995812938 0 0 0.239999995812938 112.989602778995 41.0783992833424)" fill="#e6e8ec" stroke="#000000" stroke-opacity="0" stroke-width="0" stroke-linecap="square" stroke-linejoin="bevel" width="41.39" height="8.4" rx="3.87" ry="3.87"/><circle id="shape45" transform="matrix(0.239999995812938 0 0 0.239999995812938 124.425602579482 40.941599285729)" r="4.77" cx="4.77" cy="4.77" fill="#e6e8ec" stroke="#000000" stroke-opacity="0" stroke-width="0" stroke-linecap="square" stroke-linejoin="bevel"/><path id="shape46" transform="matrix(0.239999995812938 0 0 0.239999995812938 162.025818868498 30.3936875581909)" fill="#1e44b5" stroke="#000000" stroke-opacity="0" stroke-width="0" stroke-linecap="square" stroke-linejoin="bevel" d="M75.0924 0.109633C75.0924 0.109633 -9.10757 -4.97037 0.812429 54.0296C0.812429 54.0296 -1.18757 64.4596 8.29243 69.1896C8.29243 69.1896 8.44243 64.8196 16.9324 66.3096C19.955 66.8107 23.0257 66.9583 26.0824 66.7496C30.206 66.4786 34.1297 64.8747 37.2624 62.1796L37.2624 62.1796C37.2624 62.1796 60.9324 52.3996 70.1324 13.7196C70.1324 13.7196 76.9424 5.27963 76.6724 3.10963L62.4624 9.17963C62.4624 9.17963 67.3224 19.4296 63.4624 27.9496C63.4624 27.9496 63.0024 9.54963 60.2724 9.94963C59.7224 10.0296 52.8924 13.4996 52.8924 13.4996C52.8924 13.4996 61.2424 31.3496 54.9424 44.3296C54.9424 44.3296 57.3324 22.3296 50.2824 14.7896L40.2824 20.6296C40.2824 20.6296 50.0424 39.0696 43.4224 54.1196C43.4224 54.1196 45.1224 31.0396 38.1724 22.0496L29.1124 29.1196C29.1124 29.1196 38.2824 47.2896 32.6924 59.7696C32.6924 59.7696 31.9624 32.9096 27.1524 30.8796C27.1524 30.8796 19.2224 37.8796 18.0124 40.7396C18.0124 40.7396 24.2924 53.9396 20.3924 60.8996C20.3924 60.8996 18.0024 42.9996 16.0424 42.8996C16.0424 42.8996 8.14243 54.7596 7.32243 62.8996C7.32243 62.8996 7.66243 50.8096 14.1324 41.7796C14.1324 41.7796 6.49243 43.0896 2.03243 48.0396C2.03243 48.0396 3.26243 39.6596 16.0824 38.9196C16.0824 38.9196 22.6124 29.9196 24.3524 29.3796C24.3524 29.3796 11.6124 28.3096 3.88243 31.7396C3.88243 31.7396 10.6824 23.8296 26.6924 27.4296L35.6424 20.1196C35.6424 20.1196 18.8624 17.8296 11.7424 20.3596C11.7424 20.3596 19.9324 13.3596 38.0524 18.4596L47.7924 12.6396C47.7924 12.6396 33.4824 9.55963 24.9624 10.6396C24.9624 10.6396 33.9624 5.78963 50.6524 11.0496L57.6524 7.91963C57.6524 7.91963 47.1724 5.85963 44.1024 5.52963C41.0324 5.19963 40.8724 4.35963 40.8724 4.35963C47.5119 3.25249 54.3285 4.01065 60.5624 6.54963C60.5624 6.54963 75.3424 1.03963 75.0924 0.109633Z"/><path id="shape47" transform="matrix(0.239999995812938 0 0 0.239999995812938 151.178199407839 24.1105867037872)" fill="#053ad7" stroke="#000000" stroke-opacity="0" stroke-width="0" stroke-linecap="square" stroke-linejoin="bevel" d="M33.9208 0.0492203C33.9208 0.0492203 -4.07916 -2.24078 0.360845 24.4192C0.360845 24.4192 -0.529155 29.1292 3.74084 31.2692C3.74084 31.2692 3.81084 29.2692 7.65084 29.9592C9.01478 30.1888 10.4011 30.2559 11.7808 30.1592C13.6461 30.0359 15.4198 29.3054 16.8308 28.0792L16.8308 28.0792C16.8308 28.0792 27.5308 23.6592 31.6908 6.17922C31.6908 6.17922 34.7608 2.36922 34.6408 1.38922L28.2208 4.12922C28.2208 4.12922 30.4108 8.75922 28.6908 12.6092C28.6908 12.6092 28.4808 4.29922 27.2508 4.48922C27.0008 4.48922 23.9108 6.09922 23.9108 6.09922C23.9108 6.09922 27.6908 14.1692 24.8408 20.0292C24.8408 20.0292 25.9208 10.0892 22.7308 6.67922L18.2108 9.35922C18.2108 9.35922 22.6208 17.6892 19.6308 24.4892C19.6308 24.4892 20.4008 14.0592 17.2608 9.99922L13.1708 13.1992C13.1708 13.1992 17.3108 21.4092 14.7908 27.0492C14.7908 27.0492 14.4508 14.9092 12.2808 13.9892C12.2808 13.9892 8.70084 17.1492 8.15084 18.4492C8.15084 18.4492 10.9908 24.4492 9.23084 27.5592C9.23084 27.5592 8.15084 19.4692 7.23084 19.4292C7.23084 19.4292 3.66084 24.7892 3.29084 28.4292C3.46951 25.0353 4.53119 21.7469 6.37084 18.8892C4.31072 19.2794 2.4095 20.2631 0.900845 21.7192C0.900845 21.7192 1.46084 17.9292 7.25084 17.5992C7.25084 17.5992 10.2508 13.5292 10.9908 13.2792C10.9908 13.2792 5.23084 12.7992 1.74084 14.3492C1.74084 14.3492 4.81084 10.7792 12.0408 12.3992L16.0408 9.09922C16.0408 9.09922 8.45084 8.09922 5.24084 9.20922C5.24084 9.20922 8.94084 6.04922 17.1308 8.34922L21.5308 5.71922C21.5308 5.71922 15.0608 4.32922 11.2108 4.82922C11.2108 4.82922 15.2808 2.63922 22.8208 5.00922L25.9708 3.59922C25.9708 3.59922 21.2308 2.66922 19.8408 2.51922C18.4508 2.36922 18.3808 1.98922 18.3808 1.98922C21.3828 1.48983 24.4645 1.83609 27.2808 2.98922C27.2808 2.98922 34.0408 0.46922 33.9208 0.0492203Z"/><rect id="shape48" transform="matrix(0.239999995812938 0 0 0.239999995812938 95.0184030925223 54.2831990529702)" opacity="0.1" fill="#ffffff" stroke="#000000" stroke-opacity="0" stroke-width="0" stroke-linecap="square" stroke-linejoin="bevel" width="206.95" height="439.24"/><path id="shape49" transform="matrix(0.239999995812938 0 0 0.239999995812938 95.0323369769933 98.6276609847665)" fill="url(#gradient0)" stroke="#000000" stroke-opacity="0" stroke-width="0" stroke-linecap="square" stroke-linejoin="bevel" d="M200.552 377.091C200.552 377.091 195.672 365.731 193.492 360.491C192.262 357.491 190.182 356.991 188.592 357.061L188.682 356.061L189.072 351.331L189.152 350.331C192.922 349.541 196.152 348.921 196.152 348.921L193.802 227.601C193.802 227.601 192.802 226.321 190.382 218.601C189.182 214.751 183.382 210.021 177.962 206.251C177.112 205.661 176.282 205.101 175.462 204.561C177.435 202.908 179.509 201.378 181.672 199.981C184.752 198.191 185.772 187.981 185.772 187.981L185.262 188.981C185.772 187.981 185.262 161.911 185.262 161.911L183.462 134.851C183.462 134.851 182.182 102.681 172.182 94.2514C162.182 85.8214 149.552 82.8714 149.552 82.8714L142.552 81.0714L142.552 81.0714L129.652 77.7614C129.292 77.1714 128.942 76.5514 128.652 75.9014C128.522 75.6514 128.402 75.3914 128.282 75.1314C136.279 69.4697 141.033 60.2799 141.032 50.4814C141.034 48.8601 140.904 47.2414 140.642 45.6414C140.642 45.3414 140.532 45.0314 140.472 44.7314C141.532 44.0057 142.535 43.2 143.472 42.3214C145 41.1043 146.248 39.573 147.132 37.8314L147.132 37.8314C147.271 37.4901 147.384 37.1392 147.472 36.7814C147.472 36.6814 147.472 36.5814 147.532 36.4714C147.592 36.3614 147.622 35.9414 147.652 35.6714C147.652 35.5714 147.652 35.4714 147.652 35.3714C147.652 35.0814 147.652 34.7814 147.652 34.4914C147.652 34.4214 147.652 34.3514 147.652 34.2714C147.652 33.9414 147.602 33.6114 147.552 33.2714C147.557 33.2517 147.557 33.2311 147.552 33.2114L147.552 33.2114C147.369 32.0503 147.067 30.911 146.652 29.8114C145.652 27.2314 144.352 24.8114 143.882 22.0614C143.302 18.8114 143.972 15.2614 142.422 12.3414C141.119 10.106 138.885 8.56934 136.332 8.15141C133.793 7.75991 131.196 8.05691 128.812 9.01141C127.646 9.56587 126.389 9.90467 125.102 10.0114C124.166 9.95711 123.248 9.73349 122.392 9.35141C119.423 8.18669 116.603 6.67271 113.992 4.84141C112.113 3.35879 110.105 2.04692 107.992 0.921405C105.843 -0.200265 103.305 -0.302958 101.072 0.641405C97.3719 2.52141 96.6719 7.76141 93.2319 10.0714C90.8619 11.6714 87.7719 11.5114 84.9119 11.6114C82.0519 11.7114 78.8119 12.4214 77.4019 14.9014C76.4019 16.6214 76.6419 18.6714 76.8319 20.6814L76.8919 21.3614C76.8919 21.6014 76.8919 21.8514 76.9519 22.0914C77.1095 24.6628 76.7245 27.2385 75.8219 29.6514C74.4419 33.3114 71.8219 36.9214 71.9119 40.6514L71.9119 40.6514C71.9201 41.245 71.9973 41.8356 72.1419 42.4114C72.2202 42.6995 72.3137 42.9832 72.4219 43.2614L72.4219 43.2614C72.9726 44.4975 73.5901 45.7026 74.2719 46.8714L74.3619 47.0314C74.4319 47.1714 74.5019 47.3114 74.5619 47.4514C74.6219 47.5914 74.7419 47.8314 74.8119 48.0214C74.8819 48.2114 74.8919 48.2114 74.9219 48.3014C74.9519 48.3914 75.0519 48.6714 75.1019 48.8614C75.2669 49.426 75.3379 50.0138 75.3119 50.6014C75.1945 51.3593 75.131 52.1245 75.1219 52.8914C75.1291 53.6825 75.6872 54.3613 76.4619 54.5214C76.8745 54.511 77.276 54.3864 77.6219 54.1614C78.5191 53.65 79.3721 53.0646 80.1719 52.4114C80.1719 52.7314 80.1719 53.0514 80.2319 53.4114C80.9283 60.5688 84.1508 67.2442 89.3219 72.2414C89.3219 72.5514 89.3219 72.8714 89.2519 73.2414C89.1819 73.6114 89.2019 73.9614 89.1819 74.3314L89.1819 74.3314L77.9819 77.8514C77.9819 77.8514 78.0419 78.0514 78.1619 78.3914L76.9819 78.8614L76.9819 78.8614C71.1719 81.2114 64.7019 84.1314 61.0819 86.7814C59.4819 87.9414 58.0219 88.8914 56.7119 89.6814C51.9556 92.5922 48.309 97.0097 46.3519 102.231L46.2019 102.611C45.2019 104.901 40.3019 120.481 40.3019 120.481C40.3019 120.481 36.7119 129.161 36.1919 134.781C36.1919 134.781 30.2919 153.411 31.8319 165.671C31.8319 165.671 27.2119 183.291 29.0119 186.091C29.0119 186.091 27.1719 193.671 35.2519 201.301C34.6619 201.661 34.0219 202.051 33.3519 202.481C27.0919 206.421 18.0619 212.811 16.5219 217.741C14.1319 225.411 13.1019 226.741 13.1019 226.741L10.6819 347.871C10.6819 347.871 13.9119 348.491 17.6819 349.271L17.7619 350.271L18.1519 354.991L18.2419 355.991C16.6519 355.921 14.5719 356.471 13.3419 359.431C11.1519 364.661 6.34194 376.011 6.34194 376.011C6.34194 376.011 -4.42806 386.011 2.10194 395.291C2.3897 395.715 2.72524 396.104 3.10194 396.451C7.79194 400.711 17.7919 397.981 24.9019 395.201C28.5151 393.659 31.6303 391.146 33.9019 387.941C34.4812 387.183 35.3514 386.7 36.3019 386.611C37.9325 386.348 39.4701 385.678 40.7719 384.661C42.3631 383.5 43.2826 381.631 43.2319 379.661C43.227 379.612 43.227 379.561 43.2319 379.511L42.6019 365.281C42.6019 365.281 41.8319 355.341 39.3819 355.981L38.7519 356.131L38.5819 355.131L38.5819 355.131L38.2519 353.201L38.0819 352.201L39.4419 352.201C39.4419 352.201 39.7819 340.961 43.8919 332.121C48.0019 323.281 50.7019 251.871 50.7019 251.871C50.7019 251.871 101.572 252.701 103.272 247.931L103.272 247.931C104.272 247.931 105.362 247.931 106.402 247.861C108.112 252.631 156.122 252.861 156.122 252.861C156.122 252.861 158.852 324.351 162.952 333.201C163.817 335.097 164.536 337.056 165.102 339.061L165.102 339.061C166.392 343.699 167.167 348.464 167.412 353.271L168.772 353.271L168.592 354.271L168.262 356.191L168.092 357.191L167.442 357.041C165.012 356.411 164.242 366.351 164.242 366.351L163.592 380.671C163.489 382.633 164.384 384.514 165.972 385.671C167.296 386.71 168.861 387.398 170.522 387.671C171.474 387.748 172.347 388.229 172.922 388.991C175.196 392.194 178.31 394.707 181.922 396.251C189.602 399.251 200.642 402.181 204.742 396.351C211.322 387.051 200.552 377.091 200.552 377.091ZM71.2519 198.751L71.2519 198.751L71.3719 198.751ZM151.602 157.871C151.602 157.871 152.892 162.721 155.192 165.271C157.492 167.821 156.352 183.661 156.352 183.661C155.447 183.719 154.549 183.863 153.672 184.091C151.902 173.561 150.272 161.871 151.602 157.871Z"/><path id="shape50" transform="matrix(0.239999995812938 0 0 0.239999995812938 99.6840030111258 180.551996850073)" fill="#8e6f7f" stroke="#000000" stroke-opacity="0" stroke-width="0" stroke-linecap="square" stroke-linejoin="bevel" d="M21.61 16.13L1.5 18.13L0.94 11.4L0.55 6.77L0 0L19 1L20.51 9.69L20.83 11.58L20.84 11.58L21.61 16.13Z"/><path id="shape51" transform="matrix(0.239999995812938 0 0 0.239999995812938 134.829602397972 180.794396845844)" fill="#8e6f7f" stroke="#000000" stroke-opacity="0" stroke-width="0" stroke-linecap="square" stroke-linejoin="bevel" d="M21.62 0L21.07 6.76L20.69 11.39L20.12 18.12L0 16.12L0.8 11.57L1.11 9.69L2.62 1L21.62 0Z"/><path id="shape52" transform="matrix(0.239999995812938 0 0 0.239999995812938 104.882402920434 146.560797443087)" fill="#5f5570" stroke="#000000" stroke-opacity="0" stroke-width="0" stroke-linecap="square" stroke-linejoin="bevel" d="M125.09 45.25L65.29 48.06C62.57 48.1933 59.85 48.1933 57.13 48.06L0 45.26L0 0L125.09 0Z"/><path id="shape53" transform="matrix(0.239999995812938 0 0 0.239999995812938 104.882402920434 146.560797443087)" opacity="0.1" fill="#000000" stroke="#000000" stroke-opacity="0" stroke-width="0" stroke-linecap="square" stroke-linejoin="bevel" d="M125.09 45.25L65.29 48.06C62.57 48.1933 59.85 48.1933 57.13 48.06L0 45.26L0 0L125.09 0Z"/><path id="shape54" transform="matrix(0.239999995812938 0 0 0.239999995812938 104.127268855151 117.295197953657)" fill="#eaeaf2" stroke="#000000" stroke-opacity="0" stroke-width="0" stroke-linecap="square" stroke-linejoin="bevel" d="M51.6564 0C51.6564 0 31.7364 6.69 24.2364 12.19C22.6764 13.33 21.2364 14.27 19.9764 15.04C15.3443 17.8959 11.7998 22.2183 9.90639 27.32C9.85639 27.46 9.80639 27.58 9.75639 27.69C8.75639 29.94 4.00639 45.19 4.00639 45.19C4.00639 45.19 0.506392 53.69 0.00639199 59.19C-0.493608 64.69 28.5064 79.44 28.5064 79.44C28.5064 79.44 14.5064 109.94 20.7564 117.69C27.0064 125.44 118.256 129.19 116.256 117.69C114.256 106.19 110.756 87.19 112.506 81.94L143.506 59.44C143.506 59.44 142.256 27.94 132.506 19.69C122.756 11.44 110.506 8.44 110.506 8.44L91.0964 3.44C91.0964 3.44 84.2564 20.44 76.7564 22.69C69.2564 24.94 52.8264 14.55 51.6564 0Z"/><path id="shape55" transform="matrix(0.239999995812938 0 0 0.239999995812938 117.715202696552 124.166397833781)" opacity="0.1" fill="#000000" stroke="#000000" stroke-opacity="0" stroke-width="0" stroke-linecap="square" stroke-linejoin="bevel" d="M23.02 0C23.02 0 14.56 7.06 10.12 0C10.12 0 6.12 11.94 10.12 15.94L9.97 16.75L9.26 20.31L0 97.31L7.62 110.46L21.49 93.06L20.37 21.06L19.87 16.93L19.75 15.93L22.12 15.93C22.12 15.93 28.41 5.06 23.02 0Z"/><path id="shape56" transform="matrix(0.239999995812938 0 0 0.239999995812938 118.195202688178 124.166397833781)" opacity="0.1" fill="#000000" stroke="#000000" stroke-opacity="0" stroke-width="0" stroke-linecap="square" stroke-linejoin="bevel" d="M23.02 0C23.02 0 14.56 7.06 10.12 0C10.12 0 6.12 11.94 10.12 15.94L9.97 16.75L9.26 20.31L0 97.31L7.62 110.46L21.49 93.06L20.37 21.06L19.87 16.93L19.75 15.93L22.12 15.93C22.12 15.93 28.41 5.06 23.02 0Z"/><path id="shape57" transform="matrix(0.239999995812938 0 0 0.239999995812938 117.950402692448 126.974397784793)" fill="#bc8487" stroke="#000000" stroke-opacity="0" stroke-width="0" stroke-linecap="square" stroke-linejoin="bevel" d="M21.51 80.37L7.64 97.74L0 84.66L9.27 7.62L9.98 4.06L10.14 3.24L11.39 0L19.77 3.24L19.89 4.24L20.39 8.37L21.51 80.37Z"/><path id="shape58" transform="matrix(0.239999995812938 0 0 0.239999995812938 99.6840030111258 180.549596850115)" opacity="0.1" fill="#000000" stroke="#000000" stroke-opacity="0" stroke-width="0" stroke-linecap="square" stroke-linejoin="bevel" d="M20.51 9.69C16.1948 9.66248 11.892 9.22383 7.66 8.38C5.57 7.86 2.95 7.28 0.56 6.77L0 0L19 1Z"/><path id="shape59" transform="matrix(0.239999995812938 0 0 0.239999995812938 98.1624030376718 146.548797443296)" fill="#5f5570" stroke="#000000" stroke-opacity="0" stroke-width="0" stroke-linecap="square" stroke-linejoin="bevel" d="M90.24 48.2C88.58 52.87 39 52.05 39 52.05C39 52.05 36.34 122.05 32.34 130.72C28.34 139.39 28 150.38 28 150.38C28 150.38 19.34 150.38 14 149.05C8.66 147.72 0 146.05 0 146.05L2.34 27.3C2.34 27.3 3.34 26.05 5.67 18.54C7.17 13.71 15.97 7.45 22.06 3.54C25.46 1.4 28 0 28 0L57.58 1.2L75.84 1.94C75.84 1.94 91.91 43.53 90.24 48.2Z"/><path id="shape60" transform="matrix(0.239999995812938 0 0 0.239999995812938 99.9072030072318 183.285596802382)" opacity="0.1" fill="#000000" stroke="#000000" stroke-opacity="0" stroke-width="0" stroke-linecap="square" stroke-linejoin="bevel" d="M20.69 4.73L0.57 6.73L0 0C0.753675 0.0209799 1.49664 0.183822 2.19 0.48C5.86 3.12 16.35 1.02 19.9 0.18L19.9 0.18Z"/><path id="shape61" transform="matrix(0.239999995812938 0 0 0.239999995812938 95.6588963015653 183.516583456197)" fill="#bc8487" stroke="#000000" stroke-opacity="0" stroke-width="0" stroke-linecap="square" stroke-linejoin="bevel" d="M42.1913 23.2176C42.2395 25.1444 41.3387 26.9721 39.7813 28.1076C38.5153 29.1005 37.019 29.7575 35.4313 30.0176C34.5043 30.0974 33.6561 30.5707 33.1013 31.3176C30.8785 34.4526 27.8333 36.913 24.3013 38.4276C17.3713 41.1476 7.62128 43.8176 3.05128 39.6476C2.67401 39.3122 2.33829 38.9328 2.05128 38.5176C-4.31872 29.3976 6.18128 19.6376 6.18128 19.6376C6.18128 19.6376 10.9213 8.51756 13.0513 3.39756C13.5166 2.05416 14.5317 0.972356 15.8428 0.422709C17.154 -0.126937 18.6371 -0.0924463 19.9213 0.517556C23.9213 3.39756 36.0513 0.637556 38.4213 0.0275556C40.7913 -0.582444 41.5513 9.13756 41.5513 9.13756L42.1913 23.0676C42.1863 23.1174 42.1863 23.1677 42.1913 23.2176Z"/><path id="shape62" transform="matrix(0.239999995812938 0 0 0.239999995812938 135.098402393283 180.791996845886)" opacity="0.1" fill="#000000" stroke="#000000" stroke-opacity="0" stroke-width="0" stroke-linecap="square" stroke-linejoin="bevel" d="M20.51 0L19.95 6.76C17.56 7.27 14.95 7.85 12.84 8.37C8.61144 9.21548 4.31214 9.65746 0 9.69L1.51 1Z"/><path id="shape63" transform="matrix(0.239999995812938 0 0 0.239999995812938 120.535142931801 146.8007974389)" fill="#5f5570" stroke="#000000" stroke-opacity="0" stroke-width="0" stroke-linecap="square" stroke-linejoin="bevel" d="M87.5402 146C87.5402 146 78.8802 147.67 73.5402 149C68.2002 150.33 59.5402 150.33 59.5402 150.33C59.5402 150.33 59.2102 139.33 55.2102 130.67C51.2102 122.01 48.5402 52 48.5402 52C48.5402 52 1.76025 51.73 0.0902488 47.06C-1.57975 42.39 20.4802 2.06 20.4802 2.06L33.9302 1.36L59.5402 0C59.5402 0 64.5402 2.72 69.7802 6.39C75.0202 10.06 80.7102 14.72 81.8802 18.49C84.2102 26 85.2102 27.25 85.2102 27.25Z"/><path id="shape64" transform="matrix(0.239999995812938 0 0 0.239999995812938 134.829602397972 183.525596798195)" opacity="0.1" fill="#000000" stroke="#000000" stroke-opacity="0" stroke-width="0" stroke-linecap="square" stroke-linejoin="bevel" d="M20.69 0L20.13 6.73L0 4.73L0.8 0.18C4.35 1.03 14.8 3.12 18.5 0.48C19.1934 0.183822 19.9363 0.0209799 20.69 0Z"/><path id="shape65" transform="matrix(0.239999995812938 0 0 0.239999995812938 133.927923853122 183.754189974876)" fill="#bc8487" stroke="#000000" stroke-opacity="0" stroke-width="0" stroke-linecap="square" stroke-linejoin="bevel" d="M22.257 0.527528C23.5422 -0.0859535 25.028 -0.122306 26.3416 0.427592C27.6553 0.97749 28.6721 2.06145 29.137 3.40753C31.257 8.52753 36.007 19.6575 36.007 19.6575C36.007 19.6575 46.507 29.4075 40.137 38.5275C36.137 44.2475 25.377 41.3775 17.897 38.4375C14.3615 36.9288 11.3148 34.4672 9.09699 31.3275C8.53908 30.5792 7.68714 30.1059 6.75699 30.0275C5.13242 29.7446 3.60537 29.0568 2.31699 28.0275C0.779431 26.8895 -0.0874521 25.0581 0.006994 23.1475L0.636994 9.14753C0.636994 9.14753 1.38699 -0.582472 3.75699 0.0275284C6.12699 0.637528 18.257 3.40753 22.257 0.527528Z"/><path id="shape66" transform="matrix(0.239999995812938 0 0 0.239999995812938 116.037653507748 115.027464659887)" fill="#ffc4d0" stroke="#000000" stroke-opacity="0" stroke-width="0" stroke-linecap="square" stroke-linejoin="bevel" d="M45.1098 17.8889L24.9198 39.2889L24.3598 39.8889L23.6298 39.4589C19.4098 36.9589 -1.70021 24.2189 0.109788 20.3889C1.10979 18.2089 1.69979 13.6689 2.00979 9.75889C2.00979 9.28889 2.06979 8.82889 2.10979 8.37889C2.30979 5.28889 2.35979 2.88889 2.35979 2.88889C2.35979 2.88889 40.3598 -3.61111 38.8598 2.88889C38.2498 5.51889 39.1598 8.47889 40.4498 11.0689C40.8298 11.8189 41.2498 12.5289 41.6598 13.1989C42.6694 14.8608 43.8239 16.4303 45.1098 17.8889Z"/><path id="shape67" transform="matrix(0.239999995812938 0 0 0.239999995812938 116.544002716985 115.027464659887)" opacity="0.1" fill="#000000" stroke="#000000" stroke-opacity="0" stroke-width="0" stroke-linecap="square" stroke-linejoin="bevel" d="M38.34 11.0689C26.6303 19.6981 10.39 18.5587 0 8.37889C0.2 5.28889 0.25 2.88889 0.25 2.88889C0.25 2.88889 38.25 -3.61111 36.75 2.88889C36.17 5.53889 37.05 8.47889 38.34 11.0689Z"/><path id="shape68" transform="matrix(0.239999995812938 0 0 0.239999995812938 114.39479763885 104.458875264536)" fill="#ffc4d0" stroke="#000000" stroke-opacity="0" stroke-width="0" stroke-linecap="square" stroke-linejoin="bevel" d="M59.365 30.2147C59.5931 46.2147 47.0924 59.5132 31.1088 60.2741C15.1253 61.035 1.41778 48.984 0.125021 33.0347C0.0450213 32.1013 0.00502132 31.1613 0.00502132 30.2147C-0.191957 19.4866 5.41868 9.48801 14.6781 4.06629C23.9374 -1.35543 35.4026 -1.35543 44.662 4.06629C53.9214 9.48801 59.532 19.4866 59.335 30.2147Z"/><path id="shape69" transform="matrix(0.239999995812938 0 0 0.239999995812938 114.414904541851 104.524692947143)" opacity="0.1" fill="#000000" stroke="#000000" stroke-opacity="0" stroke-width="0" stroke-linecap="square" stroke-linejoin="bevel" d="M58.9112 25.2004C57.3496 26.4725 55.3212 27.0214 53.3312 26.7104C48.7512 25.7104 47.1812 18.7104 42.5012 18.2304C37.8212 17.7504 34.7112 24.2304 29.9712 24.1004C27.9712 24.0504 26.1712 22.7404 24.3312 21.8304C21.1112 20.2404 15.8112 19.2704 12.3312 20.4704C7.10124 22.2604 5.33124 27.1004 1.99124 30.9504C1.42062 31.606 0.795012 32.2115 0.121243 32.7604C0.0412426 31.8271 0.00124255 30.8871 0.00124255 29.9404C-0.139993 14.3726 11.7756 1.3433 27.294 0.0965642C42.8125 -1.15017 56.6553 9.80974 59.0012 25.2004Z"/><path id="shape70" transform="matrix(0.239999995812938 0 0 0.239999995812938 112.481817765945 99.8493384313849)" fill="#8e6f7f" stroke="#000000" stroke-opacity="0" stroke-width="0" stroke-linecap="square" stroke-linejoin="bevel" d="M32.3858 40.3211C34.2258 41.2211 35.9858 42.5411 38.0258 42.5911C42.7558 42.7111 45.8458 36.2011 50.5458 36.7111C55.2458 37.2211 56.7958 44.1611 61.3958 45.1911C64.4858 45.8911 67.3958 43.5811 69.7058 41.4311C71.1984 40.2423 72.4163 38.7447 73.2758 37.0411C74.2758 34.5611 73.7558 31.7011 72.8258 29.1811C71.8958 26.6611 70.5858 24.2411 70.1258 21.5911C69.5658 18.4111 70.2158 14.9311 68.7058 12.0711C67.4405 9.88304 65.2603 8.37817 62.7658 7.97108C60.2922 7.58748 57.761 7.8741 55.4358 8.80108C54.3031 9.35079 53.0798 9.68965 51.8258 9.80108C50.9106 9.74519 50.0129 9.52501 49.1758 9.15108C46.2836 8.01123 43.5376 6.53079 40.9958 4.74108C39.1732 3.2865 37.2218 2.00118 35.1658 0.901083C33.0739 -0.197382 30.5988 -0.296532 28.4258 0.631083C24.8258 2.47108 24.1358 7.63108 20.7858 9.86108C18.4758 11.4211 15.4658 11.2611 12.6858 11.3711C9.90577 11.4811 6.68577 12.1511 5.36577 14.5811C4.18577 16.6711 4.77577 19.2411 4.92577 21.6311C5.07525 24.1481 4.69717 26.6687 3.81577 29.0311C2.26577 33.1711 -0.884229 37.2511 0.235771 41.5311C0.965771 44.3411 3.48577 46.6711 3.33577 49.5311C3.2179 50.2688 3.1544 51.0141 3.14577 51.7611C3.15263 52.5358 3.69761 53.2015 4.45577 53.3611C4.85675 53.3561 5.24697 53.2307 5.57577 53.0011C7.23842 52.071 8.72989 50.8636 9.98577 49.4311C13.3658 45.5711 15.1158 40.7411 20.3458 38.9511C23.8758 37.7811 29.1658 38.7211 32.3858 40.3211Z"/><path id="shape71" transform="matrix(0.239999995812938 0 0 0.239999995812938 117.714843653367 148.156797415243)" fill="#ffc4d0" stroke="#000000" stroke-opacity="0" stroke-width="0" stroke-linecap="square" stroke-linejoin="bevel" d="M44.9915 13.6L39.5915 15.07L27.1215 18.5C24.2354 20.65 20.9874 22.2655 17.5315 23.27C9.9015 25.2 4.9715 21 0.871496 14.5C-0.778504 11.9 0.051496 9.82 2.2115 8.19C7.4115 4.26 20.2715 2.98 24.2115 3.5C26.7992 3.71075 29.4 3.30641 31.8015 2.32C33.5062 1.6998 35.1499 0.923156 36.7115 0Z"/><path id="shape72" transform="matrix(0.239999995812938 0 0 0.239999995812938 125.356802563236 148.149597415368)" opacity="0.1" fill="#000000" stroke="#000000" stroke-opacity="0" stroke-width="0" stroke-linecap="square" stroke-linejoin="bevel" d="M13.15 13.63L7.75 15.1C6.2 10.43 3.65 4.57 0 2.32C1.70474 1.6998 3.34841 0.923156 4.91 0Z"/><path id="shape73" transform="matrix(0.239999995812938 0 0 0.239999995812938 125.844002554736 146.8007974389)" opacity="0.1" fill="#000000" stroke="#000000" stroke-opacity="0" stroke-width="0" stroke-linecap="square" stroke-linejoin="bevel" d="M47.64 6.39C45.4 8.2 43.5 9.85 43.5 9.85C43.5 9.85 17.5 18 12.5 28.25C12.5 28.25 8.5 8.25 0 8C0 8 9.15 4.41 11.79 1.34L37.42 0C37.42 0 42.42 2.72 47.64 6.39Z"/><path id="shape74" transform="matrix(0.239999995812938 0 0 0.239999995812938 125.36400256311 129.520797740368)" fill="#eaeaf2" stroke="#000000" stroke-opacity="0" stroke-width="0" stroke-linecap="square" stroke-linejoin="bevel" d="M49.25 0L55 8.5L56.75 35C56.75 35 57.25 60.5 56.75 61.5L57.25 60.5C57.25 60.5 56.25 70.5 53.25 72.25C50.25 74 43.5 79.85 43.5 79.85C43.5 79.85 17.5 88 12.5 98.25C12.5 98.25 8.5 78.25 0 78C0 78 12.75 73 12.5 69.75C12.5 69.75 22.25 61 23 58.75C23.75 56.5 28.62 56.25 28.62 56.25C28.62 56.25 29.75 40.75 27.5 38.25C25.25 35.75 24 31 24 31Z"/><path id="shape75" transform="matrix(0.239999995812938 0 0 0.239999995812938 117.714843653367 150.115197381076)" opacity="0.1" fill="#000000" stroke="#000000" stroke-opacity="0" stroke-width="0" stroke-linecap="square" stroke-linejoin="bevel" d="M17.5315 15.08C9.9015 17.01 4.9715 12.81 0.871496 6.31C-0.778504 3.71 0.051496 1.63 2.2115 0L2.9915 0.31C2.9915 0.31 16.7415 6.27 17.5315 15.08Z"/><path id="shape76" transform="matrix(0.239999995812938 0 0 0.239999995812938 111.832802799177 149.320797394935)" fill="#ffc4d0" stroke="#000000" stroke-opacity="0" stroke-width="0" stroke-linecap="square" stroke-linejoin="bevel" d="M38.88 26.38C29.88 38.88 13.13 21.5 11.88 18C11.43 16.73 9.72 15.6 7.75 14.69C5.25072 13.5981 2.65651 12.7378 0 12.12L14.88 0L17.73 1.14L26.5 4.65C26.5 4.65 47.88 13.88 38.88 26.38Z"/><path id="shape77" transform="matrix(0.239999995812938 0 0 0.239999995812938 111.82800279926 149.320797394935)" opacity="0.1" fill="#000000" stroke="#000000" stroke-opacity="0" stroke-width="0" stroke-linecap="square" stroke-linejoin="bevel" d="M17.75 1.14C9.55 5.04 7.8 10.65 7.75 14.69C5.25072 13.5981 2.65651 12.7378 0 12.12L14.88 0Z"/><path id="shape78" transform="matrix(0.239999995812938 0 0 0.239999995812938 103.46400294518 146.560797443087)" opacity="0.1" fill="#000000" stroke="#000000" stroke-opacity="0" stroke-width="0" stroke-linecap="square" stroke-linejoin="bevel" d="M39.5 34.25C39.5 34.25 15.5 15.25 4 7C2.56093 5.97489 1.22167 4.81644 0 3.54C3.4 1.4 5.94 0 5.94 0L35.52 1.2C36.31 2.57 36.78 3.5 36.78 3.5L52.78 14C33.5 20.25 39.5 34.25 39.5 34.25Z"/><path id="shape79" transform="matrix(0.239999995812938 0 0 0.239999995812938 102.347009995494 130.840797717339)" fill="#eaeaf2" stroke="#000000" stroke-opacity="0" stroke-width="0" stroke-linecap="square" stroke-linejoin="bevel" d="M12.1541 0L7.40414 2.75C7.40414 2.75 1.65414 21 3.15414 33C3.15414 33 -1.34586 50.25 0.404137 53C0.404137 53 -1.84586 62.25 9.65414 70.5C21.1541 78.75 45.1541 97.75 45.1541 97.75C45.1541 97.75 39.1541 83.75 58.4041 77.5L42.4041 67C42.4041 67 37.0341 56.34 31.9041 54C31.9041 54 27.9041 50 30.4041 47.25C32.9041 44.5 34.9041 41.5 34.9041 38.75C34.9041 36 35.9041 23 35.9041 23L38.9041 9Z"/><path id="shape80" transform="matrix(0.239999995812938 0 0 0.239999995812938 120.345602650662 126.971997784835)" opacity="0.1" fill="#000000" stroke="#000000" stroke-opacity="0" stroke-width="0" stroke-linecap="square" stroke-linejoin="bevel" d="M9.91 4.24L0.16 4.24C0.10117 4.18512 0.0476036 4.12486 0 4.06L0.16 3.24L1.41 0L9.79 3.24Z"/><path id="shape81" transform="matrix(0.239999995812938 0 0 0.239999995812938 119.957335990769 123.926397837969)" fill="#bc8487" stroke="#000000" stroke-opacity="0" stroke-width="0" stroke-linecap="square" stroke-linejoin="bevel" d="M14.6778 0C14.6778 0 6.21778 7.06 1.77778 0C1.77778 0 -2.22222 11.94 1.77778 15.94L13.7778 15.94C13.7778 15.94 20.0678 5.06 14.6778 0Z"/><path id="shape82" transform="matrix(0.239999995812938 0 0 0.239999995812938 122.124002619635 118.360797935067)" opacity="0.1" fill="#000000" stroke="#000000" stroke-opacity="0" stroke-width="0" stroke-linecap="square" stroke-linejoin="bevel" d="M17.09 0L29.69 3.25C29.69 3.25 17.75 34.25 15.12 34.25L0 27Z"/><path id="shape83" transform="matrix(0.239999995812938 0 0 0.239999995812938 121.708802626879 118.036797940719)" opacity="0.1" fill="#000000" stroke="#000000" stroke-opacity="0" stroke-width="0" stroke-linecap="square" stroke-linejoin="bevel" d="M21.48 5.35L1.29 26.75L0.73 27.35L0 26.92L17.65 0L18.08 0.71C19.0761 2.35268 20.2138 3.90525 21.48 5.35Z"/><path id="shape84" transform="matrix(0.239999995812938 0 0 0.239999995812938 121.884002623823 118.120797939254)" fill="#eaeaf2" stroke="#000000" stroke-opacity="0" stroke-width="0" stroke-linecap="square" stroke-linejoin="bevel" d="M17.09 0L29.69 3.25C29.69 3.25 17.75 34.25 15.12 34.25L0 27Z"/><path id="shape85" transform="matrix(0.239999995812938 0 0 0.239999995812938 113.664002767229 117.53519794947)" opacity="0.1" fill="#000000" stroke="#000000" stroke-opacity="0" stroke-width="0" stroke-linecap="square" stroke-linejoin="bevel" d="M10.92 0L0 3.44C0 3.44 10.75 35.94 13.75 37.69L33.25 30.44Z"/><path id="shape86" transform="matrix(0.239999995812938 0 0 0.239999995812938 116.037903912583 117.223197954913)" opacity="0.1" fill="#000000" stroke="#000000" stroke-opacity="0" stroke-width="0" stroke-linecap="square" stroke-linejoin="bevel" d="M24.9187 30.14L24.3587 30.74C24.3587 30.74 -1.89125 15.49 0.108745 11.24C1.10875 9.06 1.69875 4.52 2.00875 0.61L2.00875 0Z"/><path id="shape87" transform="matrix(0.239999995812938 0 0 0.239999995812938 113.904002763042 117.295197953657)" fill="#eaeaf2" stroke="#000000" stroke-opacity="0" stroke-width="0" stroke-linecap="square" stroke-linejoin="bevel" d="M10.92 0L0 3.44C0 3.44 10.75 35.94 13.75 37.69L33.25 30.44Z"/><path id="shape88" transform="matrix(0.239999995812938 0 0 0.239999995812938 110.282402826225 129.837597734841)" opacity="0.1" fill="#000000" stroke="#000000" stroke-opacity="0" stroke-width="0" stroke-linecap="square" stroke-linejoin="bevel" d="M0 0.83C0 0.83 6.58 2 6.46 8.83C6.34 15.66 9.17 0 9.17 0Z"/><path id="shape89" transform="matrix(0.239999995812938 0 0 0.239999995812938 110.44720282335 135.076797643438)" opacity="0.1" fill="#000000" stroke="#000000" stroke-opacity="0" stroke-width="0" stroke-linecap="square" stroke-linejoin="bevel" d="M0.813333 0C0.813333 0 -1.01667 10.33 0.813333 19.67C2.64333 29.01 2.48333 32.17 3.90333 32.67C5.32333 33.17 0.813333 0 0.813333 0Z"/><path id="shape90" transform="matrix(0.239999995812938 0 0 0.239999995812938 130.042924503803 134.836797647625)" opacity="0.1" fill="#000000" stroke="#000000" stroke-opacity="0" stroke-width="0" stroke-linecap="square" stroke-linejoin="bevel" d="M3.16449 0C2.10176 0.134801 1.15331 0.733373 0.574314 1.63467C-0.00467903 2.53597 -0.154745 3.64742 0.164492 4.67C1.00449 8.85 3.16449 0 3.16449 0Z"/><path id="shape91" transform="matrix(0.239999995812938 0 0 0.239999995812938 103.363202946938 143.131925185033)" opacity="0.1" fill="#000000" stroke="#000000" stroke-opacity="0" stroke-width="0" stroke-linecap="square" stroke-linejoin="bevel" d="M0 0.436968C0 0.436968 21.43 -1.39303 25 2.43697C28.57 6.26697 0 0.436968 0 0.436968Z"/><path id="shape92" transform="matrix(0.239999995812938 0 0 0.239999995812938 133.202402426361 143.422945972182)" opacity="0.1" fill="#000000" stroke="#000000" stroke-opacity="0" stroke-width="0" stroke-linecap="square" stroke-linejoin="bevel" d="M0 0.674381C0 0.674381 15.67 -1.25562 19.34 1.41438"/><path id="shape93" transform="matrix(0.239999995812938 0 0 0.239999995812938 134.724002399815 144.196797484329)" opacity="0.1" fill="#000000" stroke="#000000" stroke-opacity="0" stroke-width="0" stroke-linecap="square" stroke-linejoin="bevel" d="M0 0C0 0 9.33 0.33 11.5 1.5"/><path id="shape94" transform="matrix(0.239999995812938 0 0 0.239999995812938 135.163202392152 144.992085690449)" opacity="0.1" fill="#000000" stroke="#000000" stroke-opacity="0" stroke-width="0" stroke-linecap="square" stroke-linejoin="bevel" d="M0 0.0362991C0 0.0362991 8.5 -0.293701 9.67 1.0363"/><path id="shape95" transform="matrix(0.239999995812938 0 0 0.239999995812938 106.394402894056 156.280797273511)" opacity="0.1" fill="#000000" stroke="#000000" stroke-opacity="0" stroke-width="0" stroke-linecap="square" stroke-linejoin="bevel" d="M0 0C0 0 7.28 3.79 6.54 7.66C5.8 11.53 0 0 0 0Z"/><path id="shape96" transform="matrix(0.239999995812938 0 0 0.239999995812938 104.882402920434 156.722397265806)" opacity="0.1" fill="#000000" stroke="#000000" stroke-opacity="0" stroke-width="0" stroke-linecap="square" stroke-linejoin="bevel" d="M0 0C0 0 11.11 14.41 9.6 19.16C8.09 23.91 0 0 0 0Z"/><path id="shape97" transform="matrix(0.239999995812938 0 0 0.239999995812938 132.179279244468 157.295997255799)" opacity="0.1" fill="#000000" stroke="#000000" stroke-opacity="0" stroke-width="0" stroke-linecap="square" stroke-linejoin="bevel" d="M5.35301 0C5.35301 0 -0.146987 4.53 0.00301333 8.27"/><path id="shape98" transform="matrix(0.239999995812938 0 0 0.239999995812938 102.984002953554 178.72079688202)" opacity="0.1" fill="#000000" stroke="#000000" stroke-opacity="0" stroke-width="0" stroke-linecap="square" stroke-linejoin="bevel" d="M0 0C0 0 0 4.25 7.87 10.5"/><path id="shape99" transform="matrix(0.239999995812938 0 0 0.239999995812938 134.282402407519 176.320796923891)" opacity="0.1" fill="#000000" stroke="#000000" stroke-opacity="0" stroke-width="0" stroke-linecap="square" stroke-linejoin="bevel" d="M8.5 0C8.5 0 7.66 8.84 0 13.42"/><g id="group0" transform="matrix(0.239999995812938 0 0 0.239999995812938 4.75022211048781e-06 0)" opacity="0.1" fill="none">
  <path id="shape100" transform="translate(473.350102841342, 432.53)" fill="#000000" stroke="#000000" stroke-opacity="0" stroke-width="0" stroke-linecap="square" stroke-linejoin="bevel" d="M0.249897 2.1C0.249897 1.41 0.129897 0.7 0.0698972 0C-0.0575617 1.52703 -0.010592 3.06361 0.209897 4.58C0.278277 3.75514 0.29164 2.92664 0.249897 2.1Z"/>
  <path id="shape101" transform="translate(468.676939157468, 454.16)" fill="#000000" stroke="#000000" stroke-opacity="0" stroke-width="0" stroke-linecap="square" stroke-linejoin="bevel" d="M3.33306 8.41C3.48306 5.51 0.963061 3.18 0.233061 0.41C0.195846 0.275604 0.169099 0.138528 0.153061 0C-0.0751934 1.12838 -0.0478579 2.29356 0.233061 3.41C0.823061 5.7 2.60306 7.66 3.16306 9.88C3.21306 9.36 3.31306 8.89 3.33306 8.41Z"/>
  <path id="shape102" transform="translate(471.86, 448.54)" fill="#000000" stroke="#000000" stroke-opacity="0" stroke-width="0" stroke-linecap="square" stroke-linejoin="bevel" d="M70.09 1.54C69.2279 3.24195 68.0104 4.73901 66.52 5.93C64.19 8.08 61.3 10.39 58.21 9.69C53.62 8.69 52.04 1.69 47.36 1.21C42.68 0.73 39.57 7.21 34.84 7.08C32.84 7.03 31.04 5.72 29.2 4.81C25.98 3.22 20.69 2.25 17.2 3.45C11.97 5.24 10.2 10.08 6.84 13.93C5.58591 15.3631 4.09822 16.5736 2.44 17.51C2.10417 17.7315 1.71225 17.8529 1.31 17.86C0.798541 17.7912 0.367313 17.4447 0.19 16.96L0.19 17.03C0.072145 17.771 0.00864229 18.5197 0 19.27C0.0115093 20.041 0.555457 20.7012 1.31 20.86C1.71225 20.8529 2.10417 20.7315 2.44 20.51C4.09822 19.5736 5.58591 18.3631 6.84 16.93C10.22 13.08 11.97 8.24 17.2 6.45C20.73 5.25 26.02 6.22 29.2 7.81C31.04 8.72 32.8 10.03 34.84 10.08C39.57 10.2 42.66 3.69 47.36 4.21C52.06 4.73 53.62 11.65 58.21 12.69C61.3 13.39 64.21 11.08 66.52 8.93C68.0104 7.73901 69.2279 6.24195 70.09 4.54C70.6472 3.09479 70.796 1.52412 70.52 0C70.4354 0.527942 70.2911 1.04458 70.09 1.54Z"/>
 </g><path id="shape103" transform="matrix(0.239999995812938 0 0 0.239999995812938 97.1448030554249 188.072684208963)" opacity="0.1" fill="#000000" stroke="#000000" stroke-opacity="0" stroke-width="0" stroke-linecap="square" stroke-linejoin="bevel" d="M0 0.663802C0 0.663802 8.17 -1.8562 11.56 2.9238"/><path id="shape104" transform="matrix(0.239999995812938 0 0 0.239999995812938 139.445960545993 188.454758590879)" opacity="0.1" fill="#000000" stroke="#000000" stroke-opacity="0" stroke-width="0" stroke-linecap="square" stroke-linejoin="bevel" d="M13.0152 0.0718255C13.0152 0.0718255 -0.514826 -0.718174 0.015174 2.94183"/><ellipse id="shape105" transform="matrix(0.239999995812938 0 0 0.239999995812938 200.937601244646 184.509596781028)" rx="26.93" ry="4.55" cx="26.93" cy="4.55" opacity="0.1" fill="#38d39f" stroke="#000000" stroke-opacity="0" stroke-width="0" stroke-linecap="square" stroke-linejoin="bevel"/><ellipse id="shape106" transform="matrix(0.239999995812938 0 0 0.239999995812938 15.3984044815802 193.471196624684)" rx="26.93" ry="4.55" cx="26.93" cy="4.55" opacity="0.1" fill="#38d39f" stroke="#000000" stroke-opacity="0" stroke-width="0" stroke-linecap="square" stroke-linejoin="bevel"/><ellipse id="shape107" transform="matrix(0.239999995812938 0 0 0.239999995812938 40.3992040454139 199.329596522477)" rx="26.93" ry="4.55" cx="26.93" cy="4.55" opacity="0.1" fill="#38d39f" stroke="#000000" stroke-opacity="0" stroke-width="0" stroke-linecap="square" stroke-linejoin="bevel"/><ellipse id="shape108" transform="matrix(0.239999995812938 0 0 0.239999995812938 183.602401547078 195.671996586288)" rx="40.21" ry="6.8" cx="40.21" cy="6.8" fill="#0064ff" stroke="#000000" stroke-opacity="0" stroke-width="0" stroke-linecap="square" stroke-linejoin="bevel"/><path id="shape109" transform="matrix(0.239999995812938 0 0 0.239999995812938 188.318179781535 190.18725611057)" fill="#0064ff" stroke="#000000" stroke-opacity="0" stroke-width="0" stroke-linecap="square" stroke-linejoin="bevel" d="M37.1909 18.5331C39.0235 17.0346 40.3588 15.0158 41.0209 12.7431C41.5209 10.4531 40.5409 7.74309 38.3409 6.85309C35.8809 5.91309 33.2509 7.62309 31.2609 9.34309C29.2709 11.0631 26.9809 13.0331 24.3709 12.6631C27.1033 10.1917 28.3373 6.46703 27.6209 2.85309C27.5038 2.11648 27.1893 1.42535 26.7109 0.853086C25.3509 -0.606914 22.8709 0.0130857 21.2409 1.17309C16.0409 4.82309 14.5909 11.8931 14.5609 18.2431C14.0309 15.9531 14.4809 13.5631 14.4609 11.2431C14.4409 8.92309 13.8109 6.24309 11.8209 5.01309C10.5932 4.3542 9.21364 4.03001 7.82092 4.07309C5.48092 3.98309 2.88092 4.22309 1.28092 5.93309C-0.719076 8.05309 -0.179076 11.6131 1.54092 13.9331C3.26092 16.2531 5.89092 17.7431 8.31092 19.3531C10.2468 20.5074 11.8977 22.0831 13.1409 23.9631C13.2907 24.2258 13.4115 24.5042 13.5009 24.7931L28.1109 24.7931C31.4053 23.1242 34.4595 21.0186 37.1909 18.5331Z"/><path id="shape110" transform="matrix(0.239999995812938 0 0 0.239999995812938 43.5663645791408 173.584796971624)" fill="#0042e3" stroke="#000000" stroke-opacity="0" stroke-width="0" stroke-linecap="square" stroke-linejoin="bevel" d="M15.1235 0C15.1235 0 20.6235 7.19 12.5935 18C4.5635 28.81 -2.0565 38 0.593498 44.77C0.593498 44.77 12.7135 24.62 22.5935 24.34C32.4735 24.06 25.9735 12.12 15.1235 0Z"/><path id="shape111" transform="matrix(0.239999995812938 0 0 0.239999995812938 43.6440039888049 173.584796971624)" opacity="0.1" fill="#000000" stroke="#000000" stroke-opacity="0" stroke-width="0" stroke-linecap="square" stroke-linejoin="bevel" d="M14.8 0C15.2796 0.695855 15.6567 1.45695 15.92 2.26C25.54 13.56 30.67 24.11 21.42 24.37C12.81 24.62 2.48 40.02 0 43.91C0.08 44.21 0.18 44.5 0.29 44.8C0.29 44.8 12.41 24.65 22.29 24.37C32.17 24.09 25.65 12.12 14.8 0Z"/><path id="shape112" transform="matrix(0.239999995812938 0 0 0.239999995812938 49.3440038893621 175.394492828155)" fill="#332700" stroke="#000000" stroke-opacity="0" stroke-width="0" stroke-linecap="square" stroke-linejoin="bevel" d="M1.26 1.6196C1.26 4.1496 0.98 6.1996 0.63 6.1996C0.28 6.1996 0 4.1496 0 1.6196C0 -0.9104 0.35 0.2796 0.7 0.2796C1.05 0.2796 1.26 -0.9104 1.26 1.6196Z"/><path id="shape113" transform="matrix(0.239999995812938 0 0 0.239999995812938 49.449431733196 176.090665833952)" fill="#332700" stroke="#000000" stroke-opacity="0" stroke-width="0" stroke-linecap="square" stroke-linejoin="bevel" d="M4.33072 1.73888C2.11072 2.94888 0.170717 3.67888 0.0107173 3.36888C-0.149283 3.05888 1.50072 1.82888 3.72072 0.61888C5.94072 -0.59112 5.07072 0.28888 5.23072 0.61888C5.39072 0.94888 6.55072 0.52888 4.33072 1.73888Z"/><path id="shape114" transform="matrix(0.239999995812938 0 0 0.239999995812938 37.2695942872819 173.584796971624)" fill="#0043b0" stroke="#000000" stroke-opacity="0" stroke-width="0" stroke-linecap="square" stroke-linejoin="bevel" d="M12.35 0C12.35 0 6.85004 7.19 14.88 18C22.91 28.81 29.53 38 26.88 44.77C26.88 44.77 14.77 24.62 4.88004 24.34C-5.00996 24.06 1.48004 12.12 12.35 0Z"/><path id="shape115" transform="matrix(0.239999995812938 0 0 0.239999995812938 37.2643776289847 173.584796971624)" opacity="0.1" fill="#000000" stroke="#000000" stroke-opacity="0" stroke-width="0" stroke-linecap="square" stroke-linejoin="bevel" d="M12.3718 0C11.8907 0.696447 11.5103 1.45728 11.2418 2.26C1.62178 13.56 -3.49822 24.11 5.74178 24.37C14.3618 24.62 24.6918 40.02 27.1718 43.91C27.0898 44.2125 26.9897 44.5097 26.8718 44.8C26.8718 44.8 14.7618 24.65 4.87178 24.37C-5.01822 24.09 1.50178 12.12 12.3718 0Z"/><path id="shape116" transform="matrix(0.239999995812938 0 0 0.239999995812938 37.7808040910948 175.394492828155)" fill="#332700" stroke="#000000" stroke-opacity="0" stroke-width="0" stroke-linecap="square" stroke-linejoin="bevel" d="M0 1.6196C0 4.1496 0.29 6.1996 0.64 6.1996C0.99 6.1996 1.27 4.1496 1.27 1.6196C1.27 -0.9104 0.92 0.2796 0.57 0.2796C0.22 0.2796 0 -0.9104 0 1.6196Z"/><path id="shape117" transform="matrix(0.239999995812938 0 0 0.239999995812938 36.6160196989922 176.090665833952)" fill="#332700" stroke="#000000" stroke-opacity="0" stroke-width="0" stroke-linecap="square" stroke-linejoin="bevel" d="M1.35327 1.73888C3.57327 2.94888 5.50327 3.67888 5.67327 3.36888C5.84327 3.05888 4.17327 1.82888 1.95327 0.61888C-0.266732 -0.59112 0.613268 0.28888 0.443268 0.61888C0.273268 0.94888 -0.866732 0.52888 1.35327 1.73888Z"/><path id="shape118" transform="matrix(0.239999995812938 0 0 0.239999995812938 38.2008040837674 182.118376119474)" fill="#a8a8a8" stroke="#000000" stroke-opacity="0" stroke-width="0" stroke-linecap="square" stroke-linejoin="bevel" d="M0 8.30342C0 8.30342 15.36 7.82342 20 4.53342C24.64 1.24342 43.63 -2.70658 44.77 2.58342C45.91 7.87342 67.86 28.8734 50.52 29.0134C33.18 29.1534 10.22 26.3134 5.6 23.5034C0.98 20.6934 0 8.30342 0 8.30342Z"/><path id="shape119" transform="matrix(0.239999995812938 0 0 0.239999995812938 38.2008040837674 184.106396788063)" opacity="0.2" fill="#000000" stroke="#000000" stroke-opacity="0" stroke-width="0" stroke-linecap="square" stroke-linejoin="bevel" d="M50.82 18.89C33.48 19.03 10.52 16.19 5.9 13.38C2.39 11.23 0.98 3.54 0.51 0L0 0C0 0 1 12.38 5.59 15.2C10.18 18.02 33.17 20.85 50.51 20.71C55.51 20.71 57.24 18.89 57.15 16.25C56.45 17.87 54.54 18.86 50.82 18.89Z"/>
</svg>
